<?xml version="1.0" encoding="utf-8"?>
<!-- Svg Vector Icons : http://www.onlinewebfonts.com/icon -->
<!DOCTYPE svg PUBLIC "-//W3C//DTD SVG 1.1//EN" "http://www.w3.org/Graphics/SVG/1.1/DTD/svg11.dtd">
<svg version="1.1" xmlns="http://www.w3.org/2000/svg" xmlns:xlink="http://www.w3.org/1999/xlink" x="0px" y="0px" viewBox="-50 -50 364 364" enable-background="new 0 0 256 256" xml:space="preserve">
<metadata> Svg Vector Icons : http://www.onlinewebfonts.com/icon </metadata>
<g><g><g><path fill="#caadff" d="M120.3,11.4c-1.8,0.9-20.4,10.5-41.4,21.3C52.3,46.4,40.3,53,39.1,54.2c-2.4,2.6-2.8,5.1-1.2,8.3c1.3,2.4,1.7,2.7,10.1,7.1l8.9,4.6l-1,2c-0.6,1.1-1.9,4.5-2.9,7.5c-8.7,24.8-6.4,53.6,5.9,76.3l2.4,4.5l4.1-2.9c4.8-3.5,12.4-7.2,19.3-9.6c5.7-1.9,7.7-1.9,10.4,0l1.6,1.1v7.5v7.5l-29.4,15.7c-32.8,17.5-34.5,18.6-37.5,25c-6.1,12.7,0.1,29.2,13,34.9c1.6,0.7,4.9,1.6,7.3,1.8c2.7,0.3,31.8,0.5,77.1,0.4c72.1-0.2,72.7-0.2,75.9-1.3c4.3-1.5,6.5-2.9,10-6.3c3.3-3.3,6.3-8.7,7.2-13.3c0.4-1.7,0.5-5.1,0.4-7.6c-0.2-3.8-0.5-5.1-2.2-8.6c-1.4-2.7-2.9-4.8-4.7-6.4s-12.3-7.6-32-18.2l-29.3-15.8l-0.1-6.3l-0.2-6.2l2.8-2.4l2.7-2.3l3.4,1.2c5.6,2,13.3,5.9,17.5,9l4.1,2.9l2-3.6c4.7-8.3,8.4-18.9,10.3-29.2c1.5-8.4,1.4-25.6-0.3-34c-1.2-6.2-3.6-14.4-5.5-18.7l-1-2.3l13-6.6c7.1-3.6,13.1-6.6,13.2-6.6c0.2,0,0.4,8.3,0.4,18.5v18.5l-1.5,0.8c-1.7,0.9-3.5,2.7-4.5,4.7c-1,1.9-0.9,7,0.1,9c2.7,5,9.1,7.2,14,4.6c7.3-3.7,7.9-13.4,1-17.9l-2-1.3V81.3c0-19.6-0.2-21.1-2.5-23.1c-2-1.7-91.9-48-93.8-48.2C124.1,9.8,122.6,10.2,120.3,11.4z"/></g></g></g>
</svg>