<?xml version="1.0" encoding="utf-8"?>
<!-- Svg Vector Icons : http://www.onlinewebfonts.com/icon -->
<!DOCTYPE svg PUBLIC "-//W3C//DTD SVG 1.1//EN" "http://www.w3.org/Graphics/SVG/1.1/DTD/svg11.dtd">
<svg version="1.1" xmlns="http://www.w3.org/2000/svg" xmlns:xlink="http://www.w3.org/1999/xlink" x="0px" y="0px" viewBox="0 0 256 256" enable-background="new 0 0 256 256" xml:space="preserve">
<metadata> Svg Vector Icons : http://www.onlinewebfonts.com/icon </metadata>
<g><g><g><path fill="#caadff" d="M103,21.6c-12.9,6.5-32.9,16.7-44.4,22.5c-23.2,11.8-23.4,12-23.4,16.6c0,4.7-0.1,4.7,21.6,15.4l19.7,9.7l0.3,17.4c0.3,18.7,0.9,23.9,3.4,31.4c2.7,8,7.4,15.7,13.7,22l3.5,3.6v8.4v8.4l-30.7,12.4c-16.9,6.9-32.1,13.1-33.8,14c-1.7,0.8-4.3,2.9-5.7,4.4c-8.4,8.9-8.2,22.4,0.5,31.1c3.5,3.5,7.6,5.5,12.3,6.3c4.6,0.7,170.5,0.8,175.6,0.1c4.9-0.7,9.1-2.8,12.7-6.3c8.7-8.7,8.9-22.2,0.5-31.1c-1.5-1.5-4-3.6-5.7-4.4c-1.6-0.9-16.9-7.2-33.7-14l-30.7-12.4v-8.2v-8.2l3.4-3.6c6.6-7,11.9-15.7,14.1-23.3c2.2-7.6,2.7-12.4,3-30.5l0.3-17.4l20.1-10.1l20.2-10.1v18.6v18.6l-1.8,1.1c-3.6,2.1-6,7-5.3,10.8c0.6,3.1,2.7,6.2,5.3,7.7c2.1,1.2,2.8,1.4,6.1,1.2c3.1-0.2,4-0.4,5.7-1.8c2.6-2,4.4-5.6,4.4-8.5c0-3.4-2.3-7.4-5.1-9.1l-2.3-1.4V82.4c0-23,0.1-22.6-3.9-24.9c-1.2-0.7-22.4-11.6-47.2-24.2C145,17.6,130,10.2,128.5,10C126.6,9.8,124.3,10.8,103,21.6z"/></g></g></g>
</svg>