<?xml version="1.0" standalone="no"?>
<!DOCTYPE svg PUBLIC "-//W3C//DTD SVG 20010904//EN"
 "http://www.w3.org/TR/2001/REC-SVG-20010904/DTD/svg10.dtd">
<svg version="1.0" xmlns="http://www.w3.org/2000/svg"
 width="50px" height="50px" viewBox="0 0 700.000000 700.000000"
 preserveAspectRatio="xMidYMid meet">

<g transform="translate(0.000000,700.000000) scale(0.100000,-0.100000)"
fill="#00d4a1" stroke="none">
<path d="M449 6787 c-150 -43 -243 -163 -244 -317 0 -66 5 -85 33 -143 99
-201 364 -245 522 -87 122 122 127 320 11 453 -70 79 -219 123 -322 94z"/>
<path d="M1199 6787 c-150 -43 -243 -163 -244 -317 0 -66 5 -85 33 -143 99
-201 364 -245 522 -87 122 122 127 320 11 453 -70 79 -219 123 -322 94z"/>
<path d="M1949 6787 c-150 -43 -243 -163 -244 -317 0 -66 5 -85 33 -143 99
-201 364 -245 522 -87 122 122 127 320 11 453 -70 79 -219 123 -322 94z"/>
<path d="M2699 6787 c-150 -43 -243 -163 -244 -317 0 -66 5 -85 33 -143 99
-201 364 -245 522 -87 122 122 127 320 11 453 -70 79 -219 123 -322 94z"/>
<path d="M4949 6787 c-150 -43 -243 -163 -244 -317 0 -66 5 -85 33 -143 99
-201 364 -245 522 -87 122 122 127 320 11 453 -70 79 -219 123 -322 94z"/>
<path d="M5699 6787 c-150 -43 -243 -163 -244 -317 0 -66 5 -85 33 -143 99
-201 364 -245 522 -87 122 122 127 320 11 453 -70 79 -219 123 -322 94z"/>
<path d="M449 6037 c-150 -43 -243 -163 -244 -317 0 -66 5 -85 33 -143 99
-201 364 -245 522 -87 122 122 127 320 11 453 -70 79 -219 123 -322 94z"/>
<path d="M1199 6037 c-150 -43 -243 -163 -244 -317 0 -66 5 -85 33 -143 99
-201 364 -245 522 -87 122 122 127 320 11 453 -70 79 -219 123 -322 94z"/>
<path d="M1949 6037 c-150 -43 -243 -163 -244 -317 0 -66 5 -85 33 -143 99
-201 364 -245 522 -87 122 122 127 320 11 453 -70 79 -219 123 -322 94z"/>
<path d="M2699 6037 c-150 -43 -243 -163 -244 -317 0 -66 5 -85 33 -143 99
-201 364 -245 522 -87 122 122 127 320 11 453 -70 79 -219 123 -322 94z"/>
<path d="M3449 6037 c-150 -43 -243 -163 -244 -317 0 -66 5 -85 33 -143 99
-201 364 -245 522 -87 122 122 127 320 11 453 -70 79 -219 123 -322 94z"/>
<path d="M5699 6037 c-150 -43 -243 -163 -244 -317 0 -66 5 -85 33 -143 99
-201 364 -245 522 -87 122 122 127 320 11 453 -70 79 -219 123 -322 94z"/>
<path d="M6449 6037 c-150 -43 -243 -163 -244 -317 0 -66 5 -85 33 -143 99
-201 364 -245 522 -87 122 122 127 320 11 453 -70 79 -219 123 -322 94z"/>
<path d="M449 5287 c-150 -43 -243 -163 -244 -317 0 -66 5 -85 33 -143 99
-201 364 -245 522 -87 122 122 127 320 11 453 -70 79 -219 123 -322 94z"/>
<path d="M1199 5287 c-150 -43 -243 -163 -244 -317 0 -66 5 -85 33 -143 99
-201 364 -245 522 -87 122 122 127 320 11 453 -70 79 -219 123 -322 94z"/>
<path d="M2699 5287 c-150 -43 -243 -163 -244 -317 0 -66 5 -85 33 -143 99
-201 364 -245 522 -87 122 122 127 320 11 453 -70 79 -219 123 -322 94z"/>
<path d="M3449 5287 c-150 -43 -243 -163 -244 -317 0 -66 5 -85 33 -143 99
-201 364 -245 522 -87 122 122 127 320 11 453 -70 79 -219 123 -322 94z"/>
<path d="M5699 5287 c-150 -43 -243 -163 -244 -317 0 -66 5 -85 33 -143 99
-201 364 -245 522 -87 122 122 127 320 11 453 -70 79 -219 123 -322 94z"/>
<path d="M6449 5287 c-150 -43 -243 -163 -244 -317 0 -66 5 -85 33 -143 99
-201 364 -245 522 -87 122 122 127 320 11 453 -70 79 -219 123 -322 94z"/>
<path d="M449 4537 c-150 -43 -243 -163 -244 -317 0 -66 5 -85 33 -143 99
-201 364 -245 522 -87 122 122 127 320 11 453 -70 79 -219 123 -322 94z"/>
<path d="M1199 4537 c-150 -43 -243 -163 -244 -317 0 -66 5 -85 33 -143 99
-201 364 -245 522 -87 122 122 127 320 11 453 -70 79 -219 123 -322 94z"/>
<path d="M2699 4537 c-150 -43 -243 -163 -244 -317 0 -66 5 -85 33 -143 99
-201 364 -245 522 -87 122 122 127 320 11 453 -70 79 -219 123 -322 94z"/>
<path d="M3449 4537 c-150 -43 -243 -163 -244 -317 0 -66 5 -85 33 -143 99
-201 364 -245 522 -87 122 122 127 320 11 453 -70 79 -219 123 -322 94z"/>
<path d="M5699 4537 c-150 -43 -243 -163 -244 -317 0 -66 5 -85 33 -143 99
-201 364 -245 522 -87 122 122 127 320 11 453 -70 79 -219 123 -322 94z"/>
<path d="M6449 4537 c-150 -43 -243 -163 -244 -317 0 -66 5 -85 33 -143 99
-201 364 -245 522 -87 122 122 127 320 11 453 -70 79 -219 123 -322 94z"/>
<path d="M449 3787 c-150 -43 -243 -163 -244 -317 0 -66 5 -85 33 -143 99
-201 364 -245 522 -87 122 122 127 320 11 453 -70 79 -219 123 -322 94z"/>
<path d="M1199 3787 c-150 -43 -243 -163 -244 -317 0 -66 5 -85 33 -143 99
-201 364 -245 522 -87 122 122 127 320 11 453 -70 79 -219 123 -322 94z"/>
<path d="M2699 3787 c-150 -43 -243 -163 -244 -317 0 -66 5 -85 33 -143 99
-201 364 -245 522 -87 122 122 127 320 11 453 -70 79 -219 123 -322 94z"/>
<path d="M3449 3787 c-150 -43 -243 -163 -244 -317 0 -66 5 -85 33 -143 99
-201 364 -245 522 -87 122 122 127 320 11 453 -70 79 -219 123 -322 94z"/>
<path d="M5699 3787 c-150 -43 -243 -163 -244 -317 0 -66 5 -85 33 -143 99
-201 364 -245 522 -87 122 122 127 320 11 453 -70 79 -219 123 -322 94z"/>
<path d="M6449 3787 c-150 -43 -243 -163 -244 -317 0 -66 5 -85 33 -143 99
-201 364 -245 522 -87 122 122 127 320 11 453 -70 79 -219 123 -322 94z"/>
<path d="M449 3037 c-150 -43 -243 -163 -244 -317 0 -66 5 -85 33 -143 99
-201 364 -245 522 -87 122 122 127 320 11 453 -70 79 -219 123 -322 94z"/>
<path d="M1199 3037 c-150 -43 -243 -163 -244 -317 0 -66 5 -85 33 -143 99
-201 364 -245 522 -87 122 122 127 320 11 453 -70 79 -219 123 -322 94z"/>
<path d="M2699 3037 c-150 -43 -243 -163 -244 -317 0 -66 5 -85 33 -143 99
-201 364 -245 522 -87 122 122 127 320 11 453 -70 79 -219 123 -322 94z"/>
<path d="M3449 3037 c-150 -43 -243 -163 -244 -317 0 -66 5 -85 33 -143 99
-201 364 -245 522 -87 122 122 127 320 11 453 -70 79 -219 123 -322 94z"/>
<path d="M5699 3037 c-150 -43 -243 -163 -244 -317 0 -66 5 -85 33 -143 99
-201 364 -245 522 -87 122 122 127 320 11 453 -70 79 -219 123 -322 94z"/>
<path d="M6449 3037 c-150 -43 -243 -163 -244 -317 0 -66 5 -85 33 -143 99
-201 364 -245 522 -87 122 122 127 320 11 453 -70 79 -219 123 -322 94z"/>
<path d="M449 2287 c-150 -43 -243 -163 -244 -317 0 -66 5 -85 33 -143 99
-201 364 -245 522 -87 122 122 127 320 11 453 -70 79 -219 123 -322 94z"/>
<path d="M1199 2287 c-150 -43 -243 -163 -244 -317 0 -66 5 -85 33 -143 99
-201 364 -245 522 -87 122 122 127 320 11 453 -70 79 -219 123 -322 94z"/>
<path d="M2699 2287 c-150 -43 -243 -163 -244 -317 0 -66 5 -85 33 -143 99
-201 364 -245 522 -87 122 122 127 320 11 453 -70 79 -219 123 -322 94z"/>
<path d="M3449 2287 c-150 -43 -243 -163 -244 -317 0 -66 5 -85 33 -143 99
-201 364 -245 522 -87 122 122 127 320 11 453 -70 79 -219 123 -322 94z"/>
<path d="M5699 2287 c-150 -43 -243 -163 -244 -317 0 -66 5 -85 33 -143 99
-201 364 -245 522 -87 122 122 127 320 11 453 -70 79 -219 123 -322 94z"/>
<path d="M6449 2287 c-150 -43 -243 -163 -244 -317 0 -66 5 -85 33 -143 99
-201 364 -245 522 -87 122 122 127 320 11 453 -70 79 -219 123 -322 94z"/>
<path d="M449 1537 c-150 -43 -243 -163 -244 -317 0 -66 5 -85 33 -143 99
-201 364 -245 522 -87 122 122 127 320 11 453 -70 79 -219 123 -322 94z"/>
<path d="M1199 1537 c-150 -43 -243 -163 -244 -317 0 -66 5 -85 33 -143 99
-201 364 -245 522 -87 122 122 127 320 11 453 -70 79 -219 123 -322 94z"/>
<path d="M1949 1537 c-150 -43 -243 -163 -244 -317 0 -66 5 -85 33 -143 99
-201 364 -245 522 -87 122 122 127 320 11 453 -70 79 -219 123 -322 94z"/>
<path d="M2699 1537 c-150 -43 -243 -163 -244 -317 0 -66 5 -85 33 -143 99
-201 364 -245 522 -87 122 122 127 320 11 453 -70 79 -219 123 -322 94z"/>
<path d="M3449 1537 c-150 -43 -243 -163 -244 -317 0 -66 5 -85 33 -143 99
-201 364 -245 522 -87 122 122 127 320 11 453 -70 79 -219 123 -322 94z"/>
<path d="M5699 1537 c-150 -43 -243 -163 -244 -317 0 -66 5 -85 33 -143 99
-201 364 -245 522 -87 122 122 127 320 11 453 -70 79 -219 123 -322 94z"/>
<path d="M6449 1537 c-150 -43 -243 -163 -244 -317 0 -66 5 -85 33 -143 99
-201 364 -245 522 -87 122 122 127 320 11 453 -70 79 -219 123 -322 94z"/>
<path d="M1199 787 c-150 -43 -243 -163 -244 -317 0 -66 5 -85 33 -143 99
-201 364 -245 522 -87 122 122 127 320 11 453 -70 79 -219 123 -322 94z"/>
<path d="M1949 787 c-150 -43 -243 -163 -244 -317 0 -66 5 -85 33 -143 99
-201 364 -245 522 -87 122 122 127 320 11 453 -70 79 -219 123 -322 94z"/>
<path d="M2699 787 c-150 -43 -243 -163 -244 -317 0 -66 5 -85 33 -143 99
-201 364 -245 522 -87 122 122 127 320 11 453 -70 79 -219 123 -322 94z"/>
<path d="M3449 787 c-150 -43 -243 -163 -244 -317 0 -66 5 -85 33 -143 99
-201 364 -245 522 -87 122 122 127 320 11 453 -70 79 -219 123 -322 94z"/>
<path d="M6449 787 c-150 -43 -243 -163 -244 -317 0 -66 5 -85 33 -143 99
-201 364 -245 522 -87 122 122 127 320 11 453 -70 79 -219 123 -322 94z"/>
</g>
</svg>
